<?xml version="1.0" encoding="iso-8859-1"?>
<!DOCTYPE svg PUBLIC "-//W3C//DTD SVG 1.1//EN" "http://www.w3.org/Graphics/SVG/1.1/DTD/svg11.dtd">
<svg version="1.1" id="Capa_1" xmlns="http://www.w3.org/2000/svg" xmlns:xlink="http://www.w3.org/1999/xlink" x="0px" y="0px"
	 viewBox="0 0 358.051 358.051" style="enable-background:new 0 0 358.051 358.051;" xml:space="preserve">
<g>
	<path d="M226.228,134.937c-2.311-2.31-5.532-3.635-8.838-3.635c-3.353,0-6.49,1.29-8.837,3.635l-43.762,43.761l-15.112-15.114
		c-2.36-2.353-5.496-3.649-8.829-3.649c-3.336,0-6.474,1.298-8.837,3.659c-2.361,2.362-3.662,5.502-3.662,8.84
		c0,3.341,1.302,6.481,3.661,8.839l23.949,23.951c2.341,2.336,5.477,3.622,8.828,3.622c0.001,0,0.001,0,0.001,0
		c3.353,0,6.488-1.287,8.84-3.631l52.6-52.599C231.102,147.744,231.103,139.815,226.228,134.937z"/>
	<path d="M324.957,73.791c-0.198-2.277-1.577-4.283-3.632-5.282L181.869,0.655c-1.795-0.874-3.893-0.874-5.688,0L36.726,68.508
		c-2.055,1-3.435,3.005-3.632,5.282c-0.178,2.046-4.177,50.8,11.229,110.347c9.075,35.077,23.049,66.544,41.533,93.527
		c23.183,33.841,53.522,60.642,90.177,79.657c0.938,0.487,1.966,0.73,2.993,0.73s2.055-0.243,2.993-0.73
		c36.654-19.015,66.995-45.815,90.178-79.657c18.484-26.983,32.458-58.45,41.532-93.527
		C329.134,124.59,325.135,75.837,324.957,73.791z M179.025,251.701c-45.588,0-82.676-37.088-82.676-82.676
		s37.088-82.676,82.676-82.676s82.676,37.088,82.676,82.676S224.613,251.701,179.025,251.701z"/>
</g>
</svg>
